<svg width="259" height="274" viewBox="0 0 259 274" fill="none" xmlns="http://www.w3.org/2000/svg">
<path d="M12.8 204.2C12.2667 204.2 11.6 203.933 10.8 203.4C10.1333 202.867 9.8 202.333 9.8 201.8C9.8 200.6 11.0667 195.467 13.6 186.4C16.9333 173.867 20 161 22.8 147.8L24.8 137.8C25.6 134.333 26.1333 130.933 26.4 127.6C26.5333 126.4 26.6 124.8 26.6 122.8C26.6 118.4 26.2 113.867 25.4 109.2C24.7333 104.4 23.5333 98.3333 21.8 91L18.6 77.2C18.3333 75.4667 17.8667 73.7333 17.2 72L16 68C14.6667 63.4667 13.8667 59.8 13.6 57C14.8 55.2667 15.8667 54.4 16.8 54.4C17.8667 54.4 18.7333 54.7333 19.4 55.4C20.0667 55.9333 20.4667 56.6 20.6 57.4C20.7333 57.8 20.8 58.8 20.8 60.4C20.9333 61.2 21 62.0667 21 63L25.8 86.8L27.2 93.8C27.7333 97 28.3333 100.267 29 103.6C29.6667 106.933 30.2667 110.067 30.8 113C31.6 106.867 34.2 91.9333 38.6 68.2C38.6 68.2 38.7333 67.2 39 65.2C39.4 62.1333 39.9333 59.2 40.6 56.4C41 54.8 41.5333 53.6 42.2 52.8C43 51.8667 43.8 51.4 44.6 51.4C47 51.4 48.2 52.1333 48.2 53.6C48.2 54.6667 47.8 56.2 47 58.2C46.0667 60.4667 45.6 61.6 45.6 61.6C43.7333 68.9333 41 81.5333 37.4 99.4L35.4 110.2C34.4667 116.2 33.9333 119.8 33.8 121C33.5333 123.4 33.4 125 33.4 125.8L44 179.8L46.2 190L46.6 192.4C46.8667 193.467 47 194.733 47 196.2C47 199 45.9333 200.4 43.8 200.4C43.1333 200.4 42.5333 200.4 42 200.4C41.6 200.267 41.2 200 40.8 199.6C40.4 199.2 40.2 198.6 40.2 197.8C40.2 195.4 39.8667 191.733 39.2 186.8C39.2 186.667 38.8667 184.733 38.2 181C38.3333 181.533 38 179.8 37.2 175.8L35.8 168.6C32.7333 153.133 30.8 144.133 30 141.6C29.4667 142.533 27.5333 150.667 24.2 166C20.8667 181.2 18.7333 191.533 17.8 197L17.6 198.4L17.2 200.8C16.9333 201.467 16.6 202.133 16.2 202.8C16.0667 203.2 15.8 203.467 15.4 203.6C15 203.733 14.6667 203.867 14.4 204L12.8 204.2ZM68.4547 204.6C66.988 204.6 65.788 204.333 64.8547 203.8C63.6547 203.133 63.0547 202.2 63.0547 201C63.0547 199.267 63.9214 198.2 65.6547 197.8C68.3214 197.133 70.6547 195.667 72.6547 193.4C74.788 191.133 76.4547 188.4 77.6547 185.2C80.588 176.933 82.0547 166.533 82.0547 154C82.0547 149.333 81.8547 144.733 81.4547 140.2C81.188 137.667 81.0547 133.8 81.0547 128.6C80.9214 127.267 80.8547 125.333 80.8547 122.8L79.4547 76.6C79.4547 69.6667 79.388 64.6667 79.2547 61.6C79.2547 58.4 79.2547 56.6667 79.2547 56.4V55.8C79.2547 53.4 80.388 52.1333 82.6547 52C85.188 51.7333 88.9214 51.6 93.8547 51.6C96.388 51.6 100.188 51.4667 105.255 51.2C107.788 51.0667 109.855 51.7333 111.455 53.2C113.055 54.6667 113.788 56.6 113.655 59C113.388 65.4 113.255 70.4667 113.255 74.2C113.255 83 113.455 91.6 113.855 100C114.121 107.733 114.255 113.333 114.255 116.8C114.255 121.867 114.321 125.733 114.455 128.4C114.455 136.133 114.521 141.933 114.655 145.8L115.255 163C115.388 165.4 115.588 171.067 115.855 180C116.255 188.8 116.721 194.333 117.255 196.6C117.655 199.933 116.255 201.8 113.055 202.2H112.455C111.655 202.2 110.988 201.8 110.455 201C110.055 200.2 109.855 199.267 109.855 198.2C109.855 194.467 109.721 188.733 109.455 181L109.255 172.4L108.255 108.2C108.121 106.733 108.055 104.467 108.055 101.4V95.4C108.055 94.0667 108.055 92.4667 108.055 90.6C108.188 88.6 108.188 86.2667 108.055 83.6C107.788 79.8667 107.655 75.6667 107.655 71C107.655 69.6667 107.655 68 107.655 66C107.788 64 107.788 61.2667 107.655 57.8C104.855 57.4 102.055 57.2 99.2547 57.2C96.588 57.2 93.2547 57.3333 89.2547 57.6C87.1214 57.8667 85.6547 58 84.8547 58C85.1214 63.0667 85.2547 66.4667 85.2547 68.2C85.788 80.4667 86.0547 89.0667 86.0547 94C86.3214 100.267 86.588 109.533 86.8547 121.8C86.8547 124.6 86.988 128.667 87.2547 134C87.5214 142.267 87.6547 148.533 87.6547 152.8C87.6547 157.067 87.4547 160.933 87.0547 164.4C86.788 167.067 86.6547 169.133 86.6547 170.6C86.5214 175.8 85.588 180.8 83.8547 185.6C82.1214 190.267 79.9214 194.467 77.2547 198.2C74.4547 202.467 71.5214 204.6 68.4547 204.6ZM154.902 204.2C151.702 204.2 149.435 203.867 148.102 203.2C146.902 202.667 146.302 201.533 146.302 199.8V196C146.168 194.933 146.102 193.733 146.102 192.4V192L146.302 162.8L146.102 80.2C146.102 71.6667 145.968 64.2667 145.702 58C145.702 56.4 146.035 55.0667 146.702 54C147.368 52.9333 148.235 52.4 149.302 52.4H161.702C163.568 52.4 164.968 52.5333 165.902 52.8C167.235 53.2 167.902 54.3333 167.902 56.2C167.902 57.2667 167.502 58.1333 166.702 58.8C165.902 59.4667 165.035 59.8667 164.102 60H160.702L157.502 59.8L154.302 59.6C153.368 59.6 152.702 59.8 152.302 60.2C152.035 60.4667 151.902 61.0667 151.902 62C151.902 68.2667 151.968 73.9333 152.102 79V96V121C152.102 121.267 152.235 121.4 152.502 121.4H152.702H152.902C156.235 121.133 159.835 121 163.702 121C165.835 121 166.902 121.933 166.902 123.8C166.902 125.133 166.635 126.067 166.102 126.6C165.702 127 164.968 127.2 163.902 127.2H152.502C151.968 127.2 151.702 127.533 151.702 128.2L152.102 157.8C152.368 167 152.502 177.6 152.502 189.6V197H161.102H169.502H171.302C173.702 197 174.902 197.867 174.902 199.6C174.902 201.733 174.302 203 173.102 203.4C171.502 203.933 168.235 204.2 163.302 204.2H154.902ZM204.906 203C203.706 203 202.64 202.467 201.706 201.4C200.773 200.2 200.306 198.667 200.306 196.8C200.306 193.2 200.24 190.133 200.106 187.6C199.973 184.933 199.84 182.667 199.706 180.8C199.173 172.267 198.906 165.867 198.906 161.6C198.906 152.8 198.706 144 198.306 135.2C198.04 128.933 197.64 122.8 197.106 116.8C197.106 115.333 196.973 113.267 196.706 110.6C196.706 109.533 196.706 108.2 196.706 106.6C196.84 105 196.84 103.2 196.706 101.2C196.306 91.4667 195.573 76.8667 194.506 57.4C194.373 55.4 194.706 54 195.506 53.2C196.306 52.4 197.773 51.8667 199.906 51.6C205.24 51.0667 210.106 50.6667 214.506 50.4C219.04 50.1333 222.04 49.9333 223.506 49.8C228.573 50.0667 231.173 52.4667 231.306 57C231.573 83.6667 231.84 103.667 232.106 117C232.24 127.4 232.64 137.933 233.306 148.6C233.706 160.333 234.306 171.867 235.106 183.2L235.506 188.8C235.506 191.733 235.706 194.6 236.106 197.4V198C236.106 200.8 234.773 202.2 232.106 202.2C230.773 202.2 229.906 201.733 229.506 200.8C229.24 199.733 229.106 198 229.106 195.6C229.106 190.933 228.84 183.8 228.306 174.2C228.173 172.2 228.04 169.733 227.906 166.8C227.773 163.733 227.706 160.2 227.706 156.2C227.706 153.267 227.573 148.867 227.306 143L226.706 129.8L226.306 113C226.306 104.6 226.106 96.2 225.706 87.8C225.706 85.1333 225.573 81 225.306 75.4C225.04 67.1333 224.906 60.8667 224.906 56.6C224.106 56.6 222.64 56.6667 220.506 56.8C218.373 56.9333 216.573 57.1333 215.106 57.4L200.706 58.2L201.306 76.4C201.44 80.5333 201.573 86.4 201.706 94C201.973 101.6 202.24 108.133 202.506 113.6C202.773 119.733 203.306 128.4 204.106 139.6L204.906 152.6L205.306 162.6C205.573 171.4 205.84 178.2 206.106 183L206.306 189.4C206.44 190.867 206.506 193.067 206.506 196V199.8C206.506 201 206.373 201.867 206.106 202.4C205.973 202.8 205.573 203 204.906 203Z" fill="#441606"/>
<path d="M3 226.655C44.7826 273.818 81.1739 171.884 129.696 226.655C178.217 281.425 206.823 176.788 251 226.655" stroke="#441606" stroke-width="6" stroke-linecap="round"/>
<path d="M3 250.655C44.7826 297.818 72.6917 186.309 129.696 250.655C186.7 315 206.823 200.788 251 250.655" stroke="#441606" stroke-width="6" stroke-linecap="round"/>
</svg>
